<svg width="512" height="512" viewBox="0 0 512 512" fill="none" xmlns="http://www.w3.org/2000/svg">
<rect width="512" height="512" fill="url(#paint0_linear_1_4)"/>
<path d="M163.1 282.975H108.754V248.697H163.1C171.498 248.697 178.334 247.33 183.607 244.596C188.881 241.764 192.738 237.857 195.18 232.877C197.621 227.896 198.842 222.281 198.842 216.031C198.842 209.684 197.621 203.775 195.18 198.307C192.738 192.838 188.881 188.443 183.607 185.123C178.334 181.803 171.498 180.143 163.1 180.143H123.988V359H80.043V145.719H163.1C179.799 145.719 194.105 148.746 206.02 154.801C218.031 160.758 227.211 169.01 233.559 179.557C239.906 190.104 243.08 202.164 243.08 215.738C243.08 229.508 239.906 241.422 233.559 251.48C227.211 261.539 218.031 269.303 206.02 274.771C194.105 280.24 179.799 282.975 163.1 282.975ZM397.035 288.248H440.834C439.955 302.604 436 315.348 428.969 326.48C422.035 337.613 412.318 346.305 399.818 352.555C387.416 358.805 372.475 361.93 354.994 361.93C341.322 361.93 329.066 359.586 318.227 354.898C307.387 350.113 298.109 343.277 290.395 334.391C282.777 325.504 276.967 314.762 272.963 302.164C268.959 289.566 266.957 275.455 266.957 259.83V245.035C266.957 229.41 269.008 215.299 273.109 202.701C277.309 190.006 283.266 179.215 290.98 170.328C298.793 161.441 308.119 154.605 318.959 149.82C329.799 145.035 341.908 142.643 355.287 142.643C373.061 142.643 388.051 145.865 400.258 152.311C412.562 158.756 422.084 167.643 428.822 178.971C435.658 190.299 439.76 203.189 441.127 217.643H397.182C396.693 209.049 394.984 201.773 392.055 195.816C389.125 189.762 384.682 185.221 378.725 182.193C372.865 179.068 365.053 177.506 355.287 177.506C347.963 177.506 341.566 178.873 336.098 181.607C330.629 184.342 326.039 188.492 322.328 194.059C318.617 199.625 315.834 206.656 313.979 215.152C312.221 223.551 311.342 233.414 311.342 244.742V259.83C311.342 270.865 312.172 280.582 313.832 288.98C315.492 297.281 318.031 304.312 321.449 310.074C324.965 315.738 329.457 320.035 334.926 322.965C340.492 325.797 347.182 327.213 354.994 327.213C364.174 327.213 371.742 325.748 377.699 322.818C383.656 319.889 388.197 315.543 391.322 309.781C394.545 304.02 396.449 296.842 397.035 288.248Z" fill="white"/>
<defs>
<linearGradient id="paint0_linear_1_4" x1="256" y1="0" x2="256" y2="512" gradientUnits="userSpaceOnUse">
<stop stop-color="#FF792A"/>
<stop offset="1" stop-color="#F15900"/>
</linearGradient>
</defs>
</svg>
